<svg width="22" height="28" viewBox="0 0 22 28" fill="none" xmlns="http://www.w3.org/2000/svg">
<g clip-path="url(#clip0_0_3)">
<path d="M12.1656 15.9435L6.9353 27.1202L4.99988 24.2307L0.999974 25.9481L6.15236 14.0852L12.1656 15.9435Z" fill="#53C4BE" stroke="#53C4BE" stroke-linecap="round" stroke-linejoin="round"/>
<path d="M10.2461 15.9435L15.4763 27.1202L17.5001 24.7307L21.4116 25.9481L16.2593 14.0852L10.2461 15.9435Z" fill="#53C4BE" stroke="#53C4BE" stroke-linecap="round" stroke-linejoin="round"/>
<path d="M11 21.5C16.799 21.5 21.5 16.799 21.5 11C21.5 5.20101 16.799 0.5 11 0.5C5.20101 0.5 0.5 5.20101 0.5 11C0.5 16.799 5.20101 21.5 11 21.5Z" fill="#4ECDC4" stroke="#4ECDC4"/>
<path d="M10.5247 4.60611C10.6744 4.14545 11.3261 4.14545 11.4757 4.6061L12.652 8.22624C12.7189 8.43225 12.9109 8.57173 13.1275 8.57173H16.934C17.4183 8.57173 17.6197 9.19154 17.2278 9.47624L14.1484 11.7136C13.9731 11.8409 13.8998 12.0666 13.9667 12.2726L15.143 15.8928C15.2927 16.3534 14.7654 16.7365 14.3736 16.4518L11.2941 14.2144C11.1189 14.0871 10.8816 14.0871 10.7063 14.2144L7.62685 16.4518C7.23499 16.7365 6.70775 16.3534 6.85742 15.8928L8.03368 12.2726C8.10062 12.0666 8.02729 11.8409 7.85204 11.7136L4.77257 9.47624C4.38072 9.19154 4.5821 8.57173 5.06646 8.57173H8.8729C9.08951 8.57173 9.28149 8.43225 9.34843 8.22624L10.5247 4.60611Z" fill="white"/>
</g>
<defs>
<clipPath id="clip0_0_3">
<rect width="22" height="28" fill="white"/>
</clipPath>
</defs>
</svg>
