<svg width="22" height="29" viewBox="0 0 22 29" fill="none" xmlns="http://www.w3.org/2000/svg">
<g clip-path="url(#clip0_0_3)">
<path d="M12.1656 16.674L6.9353 27.8506L4.99988 24.9612L0.999974 26.6786L6.15236 14.8157L12.1656 16.674Z" fill="white" stroke="#53C4BE" stroke-linecap="round" stroke-linejoin="round"/>
<path d="M10.2461 16.674L15.4763 27.8506L17.4117 24.9612L21.4116 26.6786L16.2593 14.8157L10.2461 16.674Z" fill="white" stroke="#53C4BE" stroke-linecap="round" stroke-linejoin="round"/>
<path d="M11 22.2305C16.799 22.2305 21.5 17.5295 21.5 11.7305C21.5 5.93151 16.799 1.2305 11 1.2305C5.20101 1.2305 0.5 5.93151 0.5 11.7305C0.5 17.5295 5.20101 22.2305 11 22.2305Z" fill="white" stroke="#4ECDC4"/>
<path d="M11.0002 5.49108L12.1765 9.11122C12.3103 9.52324 12.6943 9.8022 13.1275 9.8022H16.934L13.8545 12.0396C13.504 12.2942 13.3573 12.7456 13.4912 13.1576L14.6675 16.7777L11.588 14.5404C11.2375 14.2857 10.7629 14.2857 10.4124 14.5404L7.33295 16.7777L8.50921 13.1576C8.64308 12.7456 8.49642 12.2942 8.14594 12.0396L5.06647 9.8022H8.8729C9.30612 9.8022 9.69008 9.52324 9.82396 9.11122L11.0002 5.49108Z" fill="white" stroke="#53C4BE"/>
</g>
<defs>
<clipPath id="clip0_0_3">
<rect width="22" height="29" fill="white"/>
</clipPath>
</defs>
</svg>
