<svg width="45" height="36" viewBox="0 0 45 36" fill="none" xmlns="http://www.w3.org/2000/svg">
<g clip-path="url(#clip0_0_3)">
<path d="M38 6.42773H7C3.13401 6.42773 0 9.56174 0 13.4277V28.6035C0 32.4695 3.13401 35.6035 7 35.6035H38C41.866 35.6035 45 32.4695 45 28.6035V13.4277C45 9.56174 41.866 6.42773 38 6.42773Z" fill="#AAAAAA"/>
<path d="M25.637 0H19.3623C15.4963 0 12.3623 3.13401 12.3623 7V8.8242C12.3623 12.6902 15.4963 15.8242 19.3623 15.8242H25.637C29.503 15.8242 32.637 12.6902 32.637 8.8242V7C32.637 3.13401 29.503 0 25.637 0Z" fill="#AAAAAA"/>
<path fill-rule="evenodd" clip-rule="evenodd" d="M22.7474 29.1765C27.3902 29.1765 31.154 25.4127 31.154 20.7699C31.154 16.127 27.3902 12.3633 22.7474 12.3633C18.1046 12.3633 14.3408 16.127 14.3408 20.7699C14.3408 25.4127 18.1046 29.1765 22.7474 29.1765Z" stroke="white" stroke-width="4"/>
</g>
<defs>
<clipPath id="clip0_0_3">
<rect width="45" height="36" fill="white"/>
</clipPath>
</defs>
</svg>
