<svg width="22" height="22" viewBox="0 0 22 22" fill="none" xmlns="http://www.w3.org/2000/svg">
<rect width="22" height="22" fill="#F5F5F5"/>
<g clip-path="url(#clip0_0_1)">
<rect width="1512" height="2399" transform="translate(-908 -1271)" fill="#FAFAFA"/>
<rect x="-923" y="-1103" width="1548" height="2231" rx="15" fill="white"/>
<circle cx="11" cy="11" r="11" fill="#0073C4"/>
<path d="M7.632 7.536C7.80267 7.38133 7.98933 7.23467 8.192 7.096C8.39467 6.95733 8.616 6.83467 8.856 6.728C9.096 6.62133 9.35467 6.53867 9.632 6.48C9.91467 6.416 10.2187 6.384 10.544 6.384C10.976 6.384 11.3733 6.44533 11.736 6.568C12.104 6.69067 12.4187 6.86667 12.68 7.096C12.9467 7.32533 13.1547 7.60267 13.304 7.928C13.4533 8.248 13.528 8.608 13.528 9.008C13.528 9.41333 13.4667 9.76533 13.344 10.064C13.2267 10.3573 13.0773 10.6133 12.896 10.832C12.7147 11.0507 12.5147 11.2427 12.296 11.408C12.0827 11.568 11.88 11.72 11.688 11.864C11.5013 12.008 11.3387 12.152 11.2 12.296C11.0667 12.4347 10.9867 12.592 10.96 12.768L10.808 13.976H9.744L9.632 12.656C9.60533 12.4107 9.648 12.1973 9.76 12.016C9.872 11.8347 10.016 11.6667 10.192 11.512C10.3733 11.352 10.5733 11.1973 10.792 11.048C11.0107 10.8987 11.2133 10.7333 11.4 10.552C11.5867 10.3653 11.744 10.1573 11.872 9.928C12 9.69333 12.064 9.416 12.064 9.096C12.064 8.87733 12.0213 8.68 11.936 8.504C11.8507 8.328 11.7333 8.17867 11.584 8.056C11.4347 7.928 11.2587 7.832 11.056 7.768C10.8533 7.69867 10.6373 7.664 10.408 7.664C10.088 7.664 9.816 7.704 9.592 7.784C9.368 7.85867 9.176 7.94133 9.016 8.032C8.86133 8.12267 8.73333 8.208 8.632 8.288C8.53067 8.36267 8.44533 8.4 8.376 8.4C8.22133 8.4 8.10933 8.33333 8.04 8.2L7.632 7.536ZM9.184 17.064C9.184 16.92 9.21067 16.784 9.264 16.656C9.31733 16.528 9.38933 16.416 9.48 16.32C9.576 16.224 9.688 16.1493 9.816 16.096C9.944 16.0373 10.0827 16.008 10.232 16.008C10.376 16.008 10.512 16.0373 10.64 16.096C10.768 16.1493 10.88 16.224 10.976 16.32C11.072 16.416 11.1467 16.528 11.2 16.656C11.2587 16.784 11.288 16.92 11.288 17.064C11.288 17.2133 11.2587 17.352 11.2 17.48C11.1467 17.608 11.072 17.72 10.976 17.816C10.88 17.912 10.768 17.9867 10.64 18.04C10.512 18.0933 10.376 18.12 10.232 18.12C10.0827 18.12 9.944 18.0933 9.816 18.04C9.688 17.9867 9.576 17.912 9.48 17.816C9.38933 17.72 9.31733 17.608 9.264 17.48C9.21067 17.352 9.184 17.2133 9.184 17.064Z" fill="white"/>
</g>
<defs>
<clipPath id="clip0_0_1">
<rect width="1512" height="2399" fill="white" transform="translate(-908 -1271)"/>
</clipPath>
</defs>
</svg>
