<svg width="24" height="25" viewBox="0 0 24 25" fill="none" xmlns="http://www.w3.org/2000/svg">
<path fill-rule="evenodd" clip-rule="evenodd" d="M5 22.8462C3.34315 22.8462 2 21.503 2 19.8462V7.84619C2 6.18934 3.34315 4.84619 5 4.84619H6V3.84619C6 3.29391 6.44772 2.84619 7 2.84619C7.55228 2.84619 8 3.29391 8 3.84619V4.84619H16V3.84619C16 3.29391 16.4477 2.84619 17 2.84619C17.5523 2.84619 18 3.29391 18 3.84619V4.84619H19C20.6569 4.84619 22 6.18934 22 7.84619V19.8462C22 21.503 20.6569 22.8462 19 22.8462H5ZM8 17.8462H4V19.8462C4 20.3985 4.44772 20.8462 5 20.8462H8V17.8462ZM14 17.8462H10V20.8462H14V17.8462ZM20 17.8462H16V20.8462H19C19.5523 20.8462 20 20.3985 20 19.8462V17.8462ZM8 12.8462H4V15.8462H8V12.8462ZM14 12.8462H10V15.8462H14V12.8462ZM20 12.8462H16V15.8462H20V12.8462ZM6 6.84619H5C4.44772 6.84619 4 7.29391 4 7.84619V10.8462H20V7.84619C20 7.29391 19.5523 6.84619 19 6.84619H18V7.84619C18 8.39848 17.5523 8.84619 17 8.84619C16.4477 8.84619 16 8.39848 16 7.84619V6.84619H8V7.84619C8 8.39848 7.55228 8.84619 7 8.84619C6.44772 8.84619 6 8.39848 6 7.84619V6.84619Z" fill="#AAAAAA"/>
</svg>
