<svg width="92" height="32" viewBox="0 0 92 32" fill="none" xmlns="http://www.w3.org/2000/svg">
<g clip-path="url(#clip0_0_3)">
<mask id="mask0_0_3" style="mask-type:luminance" maskUnits="userSpaceOnUse" x="0" y="0" width="92" height="32">
<path d="M92 0H0V32H92V0Z" fill="white"/>
</mask>
<g mask="url(#mask0_0_3)">
<mask id="mask1_0_3" style="mask-type:luminance" maskUnits="userSpaceOnUse" x="0" y="0" width="92" height="32">
<path d="M92 0H0V32H92V0Z" fill="white"/>
</mask>
<g mask="url(#mask1_0_3)">
<path fill-rule="evenodd" clip-rule="evenodd" d="M35.4021 23.79H39.9317V10.0919H42.8961V6.64727H40.0313C40.0672 5.03692 40.4024 4.08397 42.6052 4.08397V0.259766C35.4797 0.310438 35.4021 4.96537 35.4797 7.35592L35.4021 23.79ZM79.8235 8.65966V6.73708H75.4265V32.0002H79.8235V21.8589C81.4346 23.6359 83.6201 24.1667 85.0559 24.1667C87.5415 24.1667 91.8837 22.9933 91.8837 14.9548C91.8837 6.91636 86.6969 6.3861 84.2219 6.3861C82.927 6.3861 81.1797 7.04461 79.8235 8.65966ZM83.5441 20.2108C85.5989 20.2108 87.2647 17.9486 87.2647 15.1581C87.2647 12.3676 85.5989 10.1055 83.5441 10.1055C81.4893 10.1055 79.8235 12.3676 79.8235 15.1581C79.8235 17.9486 81.4893 20.2108 83.5441 20.2108ZM59.1912 15.1581C59.1912 20.181 55.3296 24.2529 50.5662 24.2529C45.8027 24.2529 41.9412 20.181 41.9412 15.1581C41.9412 10.1353 45.8027 6.0634 50.5662 6.0634C55.3296 6.0634 59.1912 10.1353 59.1912 15.1581ZM50.7353 20.5476C52.9769 20.5476 54.7941 18.2101 54.7941 15.3266C54.7941 12.443 52.9769 10.1055 50.7353 10.1055C48.4937 10.1055 46.6765 12.443 46.6765 15.3266C46.6765 18.2101 48.4937 20.5476 50.7353 20.5476ZM64.1054 12.2295H59.937C59.937 12.2295 59.6394 6.39942 67.1463 6.36652C74.6532 6.33363 74.5412 11.4755 74.5412 11.4755V23.6195H70.3141V22.3056C69.3921 22.9779 66.9464 24.3285 65.2498 24.3285C65.1826 24.3285 65.1116 24.3289 65.0372 24.3293C63.2326 24.3389 59.421 24.3592 59.3522 19.2593C59.2805 13.9491 65.2881 13.4303 67.2566 13.4303C69.2251 13.4303 69.9747 12.2295 69.9747 11.5037C69.9747 10.7779 69.4107 9.78939 67.0264 9.78939C64.6421 9.78939 64.1054 12.2295 64.1054 12.2295ZM69.996 15.3499C69.996 15.3499 70.1916 20.7864 66.7655 20.7864C65.0127 20.7864 63.9258 20.7864 63.9258 19.0096C63.9258 17.0948 65.521 16.8005 67.1382 16.5021C68.2516 16.2967 69.3754 16.0894 69.996 15.3499ZM8.58059 4.54761C8.58059 4.54761 8.58059 0.926557 11.2886 0.926557H18.8143C21.5223 0.926557 21.5223 4.54761 21.5223 4.54761H26.8897C28.5175 4.54761 29.8493 5.87393 29.8493 7.49498V20.8002C29.8493 22.4213 28.5175 23.7476 26.8897 23.7476H3.21322C1.58546 23.7476 0.253662 22.4213 0.253662 20.8002V7.49498C0.253662 5.87393 1.58546 4.54761 3.21322 4.54761H8.58059ZM15.0515 20.9055C11.2123 20.9055 8.09649 17.8025 8.09649 13.9792C8.09649 10.1559 11.2123 7.05287 15.0515 7.05287C18.8906 7.05287 22.0064 10.1559 22.0064 13.9792C22.0064 17.8025 18.8906 20.9055 15.0515 20.9055ZM19.1948 13.9792C19.1948 16.2581 17.3398 18.1055 15.0515 18.1055C12.7631 18.1055 10.9081 16.2581 10.9081 13.9792C10.9081 11.7003 12.7631 9.85287 15.0515 9.85287C17.3398 9.85287 19.1948 11.7003 19.1948 13.9792Z" fill="#555555"/>
</g>
</g>
</g>
<defs>
<clipPath id="clip0_0_3">
<rect width="92" height="32" fill="white"/>
</clipPath>
</defs>
</svg>
