<svg xmlns="http://www.w3.org/2000/svg" width="93.855" height="121.462" viewBox="0 0 93.855 121.462"><defs><style>.a{fill:#a2acab;}</style></defs><g transform="translate(-271.453 -104.175)"><g transform="translate(271.453 104.175)"><g transform="translate(40.649 39.997)"><path class="a" d="M400.943,271.921c5.836,6.407,20.183,20.525,24.494,22.358,3.822,1.626,5.764,1.556,8.809,1.841,3.077.317,3.2,2.654,4.72,2.368.477-.094,1.3-.982.889-1.744-.92-1.744-3.389-3.225-5.292-4.3-2.76-1.523-4.63-.285-8.531-3.076s-16.748-16.271-21.378-21.155Z" transform="translate(-400.943 -256.715)"/><path class="a" d="M441.285,231.588c6.407,5.836,20.525,20.183,22.358,24.495,1.626,3.822,1.556,5.764,1.841,8.809.318,3.077,2.655,3.2,2.368,4.72-.094.477-.982,1.3-1.743.889-1.744-.92-3.225-3.388-4.3-5.292-1.522-2.76-.285-4.631-3.076-8.532S442.458,239.93,437.574,235.3Z" transform="translate(-426.075 -231.588)"/></g><path class="a" d="M296.24,147.136l-2.252,2.251a8.626,8.626,0,0,0,6.121,14.716A8.4,8.4,0,0,0,306.2,161.6l22.646-22.614A8.656,8.656,0,1,0,316.6,126.742l-2.221,2.221a21.57,21.57,0,1,0-18.141,18.174Zm-3.268-36.348c-2.252-.064-2.252-3.553,0-3.489A18.8,18.8,0,0,1,311.5,125.821c.063,2.252-3.426,2.252-3.49,0A15.232,15.232,0,0,0,292.972,110.789Z" transform="translate(-271.453 -104.175)"/></g><path class="a" d="M512.169,388.678a13.15,13.15,0,0,0-.865-2.829l-1.506-2.607-10.68-18.5-10.68,18.5-1.505,2.607a13.117,13.117,0,0,0-.865,2.829,13.278,13.278,0,1,0,26.1,0ZM492.984,399.9c-3.655-2.485-5.346-6.519-4.161-9.5.006,2.838,2.139,6.273,5.7,8.692a14.509,14.509,0,0,0,6.4,2.5A9.92,9.92,0,0,1,492.984,399.9Z" transform="translate(-147.088 -178.772)"/></g></svg>