<svg xmlns="http://www.w3.org/2000/svg" width="121.464" height="121.462" viewBox="0 0 121.464 121.462"><defs><style>.a{fill:#a2acab;}</style></defs><g transform="translate(-45.001 -45.001)"><path class="a" d="M112.081,139.017a7.595,7.595,0,0,1-10.766-10.695l8.887-9.588a15.167,15.167,0,1,0,11.833,14.782,15.381,15.381,0,0,0-.4-3.358Z" transform="translate(-11.239 -17.661)"/><path class="a" d="M122.126,118.871A22.84,22.84,0,1,1,110.246,107l7.156-7.732a32.943,32.943,0,1,0,12.45,12.447Z" transform="translate(-5.619 -12.042)"/><path class="a" d="M137.2,94.074l-7.29,6.76a40.608,40.608,0,1,1-12.865-12.859l6.762-7.3v-.43a50.611,50.611,0,1,0,13.829,13.827Z" transform="translate(0 -6.422)"/><path class="a" d="M181.552,65.363a2.521,2.521,0,0,0-2.337-1.562H162.938V47.531a2.529,2.529,0,0,0-4.318-1.79L144.89,59.48a2.532,2.532,0,0,0-.74,1.791V76.235L109.1,114.064a2.532,2.532,0,0,0,3.578,3.578l37.82-35.05,14.968,0a2.531,2.531,0,0,0,1.791-.74L181,68.122A2.537,2.537,0,0,0,181.552,65.363Z" transform="translate(-15.28)"/></g></svg>