<svg width="20" height="20" viewBox="0 0 20 20" fill="none" xmlns="http://www.w3.org/2000/svg">
<path fill-rule="evenodd" clip-rule="evenodd" d="M17.5 16.6665C17.9603 16.6665 18.3334 17.0396 18.3334 17.4998C18.3334 17.9601 17.9603 18.3332 17.5 18.3332H2.50002C2.03978 18.3332 1.66669 17.9601 1.66669 17.4998C1.66669 17.0396 2.03978 16.6665 2.50002 16.6665H17.5ZM5.2441 11.0772L14.4108 1.91058C14.7112 1.61018 15.1839 1.58707 15.5108 1.84126L15.5893 1.91058L18.0893 4.41058C18.3897 4.71098 18.4128 5.18368 18.1586 5.51059L18.0893 5.58909L8.92261 14.7558C8.79238 14.886 8.62347 14.9687 8.44289 14.9926L8.33335 14.9998H5.83335C5.40599 14.9998 5.05376 14.6781 5.00563 14.2637L5.00002 14.1665V11.6665C5.00002 11.4823 5.06099 11.3044 5.17175 11.1598L5.2441 11.0772L14.4108 1.91058L5.2441 11.0772ZM15 3.67835L6.66669 12.0117V13.3332H7.98818L16.3215 4.99984L15 3.67835Z" fill="#4FC0BA"/>
</svg>
