<svg width="24" height="24" viewBox="0 0 24 24" fill="none" xmlns="http://www.w3.org/2000/svg">
<g clip-path="url(#clip0_1_6)">
<path opacity="0.4" d="M12 23.3C18.2408 23.3 23.3 18.2408 23.3 12C23.3 5.75918 18.2408 0.7 12 0.7C5.75918 0.7 0.7 5.75918 0.7 12C0.7 18.2408 5.75918 23.3 12 23.3Z" stroke="white" stroke-width="1.4"/>
<path d="M17.6568 10.0002C18.0473 9.60971 18.0473 8.97654 17.6568 8.58602C17.2663 8.19549 16.6331 8.19549 16.2426 8.58602L9.87863 14.95C9.48811 15.3405 9.48811 15.9737 9.87863 16.3642C10.2692 16.7547 10.9023 16.7547 11.2928 16.3642L17.6568 10.0002Z" fill="white"/>
<path d="M9.87868 16.3653C10.2692 16.7558 10.9024 16.7558 11.2929 16.3653C11.6834 15.9748 11.6834 15.3416 11.2929 14.9511L7.75736 11.4156C7.36684 11.025 6.73367 11.025 6.34315 11.4156C5.95262 11.8061 5.95262 12.4392 6.34315 12.8298L9.87868 16.3653Z" fill="white"/>
</g>
<defs>
<clipPath id="clip0_1_6">
<rect width="24" height="24" fill="white"/>
</clipPath>
</defs>
</svg>
