<svg width="24" height="24" viewBox="0 0 24 24" fill="none" xmlns="http://www.w3.org/2000/svg">
<g clip-path="url(#clip0_1_2)">
<path opacity="0.4" d="M12 23.3C18.2408 23.3 23.3 18.2408 23.3 12C23.3 5.75918 18.2408 0.7 12 0.7C5.75918 0.7 0.7 5.75918 0.7 12C0.7 18.2408 5.75918 23.3 12 23.3Z" stroke="white" stroke-width="1.4"/>
<path d="M16.2427 9.1721C16.6332 8.78158 16.6332 8.14841 16.2427 7.75789C15.8522 7.36736 15.219 7.36736 14.8285 7.75789L7.75743 14.829C7.3669 15.2195 7.3669 15.8526 7.75743 16.2432C8.14795 16.6337 8.78111 16.6337 9.17164 16.2432L16.2427 9.1721Z" fill="white"/>
<path d="M14.8284 16.2442C15.2189 16.6347 15.8521 16.6347 16.2426 16.2442C16.6331 15.8537 16.6331 15.2205 16.2426 14.83L9.17153 7.75893C8.781 7.3684 8.14784 7.3684 7.75731 7.75893C7.36679 8.14945 7.36679 8.78261 7.75731 9.17314L14.8284 16.2442Z" fill="white"/>
</g>
<defs>
<clipPath id="clip0_1_2">
<rect width="24" height="24" fill="white"/>
</clipPath>
</defs>
</svg>
