<svg width="16" height="21" viewBox="0 0 16 21" fill="none" xmlns="http://www.w3.org/2000/svg">
<g clip-path="url(#clip0_0_3)">
<path fill-rule="evenodd" clip-rule="evenodd" d="M13 6.73047C13.5523 6.73047 14 7.17818 14 7.73047V17.7305C14 19.3873 12.6569 20.7305 11 20.7305H5C3.34315 20.7305 2 19.3873 2 17.7305V7.73047C2 7.17818 2.44772 6.73047 3 6.73047H13ZM12 8.73047H4V17.7305C4 18.2828 4.44772 18.7305 5 18.7305H11C11.5523 18.7305 12 18.2828 12 17.7305V8.73047ZM5 1.73047C5 1.17818 5.44772 0.730469 6 0.730469H10C10.5523 0.730469 11 1.17818 11 1.73047V2.73047H15C15.5523 2.73047 16 3.17818 16 3.73047C16 4.28275 15.5523 4.73047 15 4.73047H1C0.447715 4.73047 0 4.28275 0 3.73047C0 3.17818 0.447715 2.73047 1 2.73047H5V1.73047Z" fill="#333333"/>
</g>
<defs>
<clipPath id="clip0_0_3">
<rect width="16" height="21" fill="white"/>
</clipPath>
</defs>
</svg>
