<svg width="24" height="25" viewBox="0 0 24 25" fill="none" xmlns="http://www.w3.org/2000/svg">
<path fill-rule="evenodd" clip-rule="evenodd" d="M17 8.5C17.5523 8.5 18 8.94772 18 9.5V19.5C18 21.1569 16.6569 22.5 15 22.5H9C7.34315 22.5 6 21.1569 6 19.5V9.5C6 8.94772 6.44772 8.5 7 8.5H17ZM16 10.5H8V19.5C8 20.0523 8.44772 20.5 9 20.5H15C15.5523 20.5 16 20.0523 16 19.5V10.5ZM9 3.5C9 2.94772 9.44772 2.5 10 2.5H14C14.5523 2.5 15 2.94772 15 3.5V4.5H19C19.5523 4.5 20 4.94772 20 5.5C20 6.05228 19.5523 6.5 19 6.5H5C4.44772 6.5 4 6.05228 4 5.5C4 4.94772 4.44772 4.5 5 4.5H9V3.5Z" fill="#333333"/>
</svg>
