<svg width="128" height="128" viewBox="0 0 128 128" fill="none" xmlns="http://www.w3.org/2000/svg">
<g clip-path="url(#clip0_1_14)">
<path d="M112 0H16C7.16344 0 0 7.16344 0 16V112C0 120.837 7.16344 128 16 128H112C120.837 128 128 120.837 128 112V16C128 7.16344 120.837 0 112 0Z" fill="#7B519D"/>
<path fill-rule="evenodd" clip-rule="evenodd" d="M105.479 86.3643C102.429 83.9093 99.1704 81.7057 95.9627 79.4548C89.5652 74.9615 83.7137 74.6122 78.94 81.8412C76.2592 85.8997 72.5064 86.0775 68.5824 84.297C57.7649 79.392 49.4117 71.8345 44.5187 60.8395C42.3542 55.975 42.3827 51.6137 47.4469 48.1732C50.1282 46.3537 52.8294 44.2008 52.6134 40.225C52.3314 35.041 39.7447 17.7168 34.7742 15.8883C32.7174 15.1315 30.6692 15.1808 28.5767 15.884C16.9217 19.8035 12.0942 29.3888 16.7174 40.7383C30.5099 74.5988 54.7824 98.1712 88.1949 112.559C90.0999 113.378 92.2162 113.705 93.2877 113.999C100.895 114.076 109.806 106.747 112.379 99.4735C114.857 92.476 109.621 89.6985 105.479 86.3643ZM68.0149 19.3598C92.4417 23.116 103.707 34.731 106.817 59.3335C107.106 61.606 106.259 65.0255 109.502 65.0885C112.89 65.1533 112.074 61.7842 112.102 59.5095C112.389 36.3385 92.185 14.858 68.7212 14.066C66.951 14.3208 63.288 12.8453 63.0595 16.813C62.9072 19.488 65.9912 19.0485 68.0149 19.3598Z" fill="white"/>
<path fill-rule="evenodd" clip-rule="evenodd" d="M72.7929 26.1055C70.4434 25.8225 67.3417 24.7155 66.7927 27.9755C66.2194 31.3973 69.6764 31.0498 71.8977 31.547C86.9842 34.9188 92.2372 40.4098 94.7212 55.3748C95.0839 57.5565 94.3632 60.9523 98.0709 60.3895C100.819 59.971 99.8262 57.0603 100.056 55.36C100.178 40.9925 87.8664 27.9155 72.7929 26.1055Z" fill="white"/>
<path fill-rule="evenodd" clip-rule="evenodd" d="M74.1782 37.854C72.6099 37.8927 71.0707 38.0625 70.4942 39.7385C69.6284 42.2435 71.4497 42.8407 73.3034 43.1385C79.4922 44.132 82.7492 47.7812 83.3674 53.9527C83.5344 55.6277 84.5974 56.985 86.2154 56.794C88.4577 56.5265 88.6604 54.5307 88.5917 52.6355C88.7024 45.702 80.8657 37.688 74.1782 37.854Z" fill="white"/>
</g>
<defs>
<clipPath id="clip0_1_14">
<rect width="128" height="128" fill="white"/>
</clipPath>
</defs>
</svg>
